<svg xmlns="http://www.w3.org/2000/svg" width="750" height="259" viewBox="0 0 750 259">
    <path fill="#00BBD3" fill-rule="evenodd" d="M277.06 167.438h73.003c9.457 0 17.124 7.677 17.124 17.146 0 9.47-7.667 17.147-17.124 17.147H235.718a17.123 17.123 0 0 1-15.82-10.585 17.163 17.163 0 0 1 3.713-18.686l85.112-85.227h-64.446c-9.457 0-17.124-7.677-17.124-17.145 0-9.471 7.667-17.148 17.124-17.148h105.787c6.927 0 13.171 4.178 15.821 10.585a17.162 17.162 0 0 1-3.711 18.686l-85.114 85.227zM0 183.087V71.585C0 61.304 8.353 52.94 18.62 52.94c10.268 0 18.621 8.364 18.621 18.645v111.502c0 10.28-8.353 18.644-18.62 18.644C8.353 201.731 0 193.368 0 183.087zm391.378 0V71.585c0-10.281 8.353-18.645 18.62-18.645 10.268 0 18.62 8.364 18.62 18.645v111.502c0 10.28-8.352 18.644-18.62 18.644-10.267 0-18.62-8.363-18.62-18.644zm210.03-55.752c0-41.02 33.328-74.395 74.296-74.395S750 86.314 750 127.335c0 41.023-33.328 74.396-74.296 74.396s-74.296-33.373-74.296-74.396zm34.247 0c0 22.113 17.966 40.103 40.05 40.103 22.082 0 40.048-17.99 40.048-40.103 0-22.112-17.966-40.102-40.049-40.102s-40.049 17.99-40.049 40.102zm-108.552 40.104c10.698 0 20.754-4.172 28.317-11.746 6.687-6.695 17.53-6.695 24.217 0 6.688 6.697 6.688 17.552 0 24.25-14.032 14.05-32.688 21.788-52.534 21.788-40.967 0-74.296-33.373-74.296-74.396 0-41.02 33.33-74.395 74.296-74.395 19.839 0 38.492 7.733 52.522 21.777 6.69 6.695 6.691 17.552.006 24.25-6.687 6.698-17.529 6.7-24.217.005-7.563-7.57-17.618-11.738-28.31-11.738-22.084 0-40.05 17.989-40.05 40.101 0 22.114 17.966 40.104 40.05 40.104zM.001 18.645C.001 8.365 8.353 0 18.621 0s18.62 8.365 18.62 18.645c0 10.281-8.352 18.645-18.62 18.645S.002 28.926.002 18.645zm391.377 0c0-10.28 8.353-18.645 18.62-18.645 10.268 0 18.62 8.365 18.62 18.645 0 10.281-8.352 18.645-18.62 18.645-10.267 0-18.62-8.364-18.62-18.645zM99.566 257.027a18.515 18.515 0 0 1-9.337-10.78 18.544 18.544 0 0 1 1.01-14.235l23.672-47.427L62.662 79.918c-4.59-9.195-.855-20.417 8.328-25.015 9.183-4.597 20.39-.858 24.981 8.337l39.76 79.652 39.791-79.632c4.592-9.195 15.798-12.935 24.982-8.338a18.52 18.52 0 0 1 9.338 10.781 18.543 18.543 0 0 1-1.01 14.234L124.548 248.69c-3.176 6.36-9.562 10.311-16.667 10.311-2.903 0-5.7-.663-8.315-1.973z"/>
</svg>
