<?xml version="1.0" ?><svg height="301px" version="1.1" viewBox="0 0 480 301" width="480px" xmlns="http://www.w3.org/2000/svg" xmlns:sketch="http://www.bohemiancoding.com/sketch/ns" xmlns:xlink="http://www.w3.org/1999/xlink"><title/><desc/><defs/><g fill="none" fill-rule="evenodd" id="round-rect" stroke="none" stroke-width="1"><g id="payu-money"><path d="M444,3.03581628e-06 C420,5.30180998e-06 165.902344,-4.81179503e-06 24,3.03581628e-06 C12,3.6994511e-06 -6.11066753e-13,12.0056015 -1.42108547e-14,24.0112 C-1.42108547e-14,96.1913435 2.8991193e-06,240.111972 -1.42108547e-14,264.123169 C-1.38851962e-06,288.134366 12,300.139965 36,300.139965 C169.869629,300.139965 420,300.139967 444,300.139965 C468,300.139965 480,288.134366 480,264.123169 C479.999998,240.111972 479.999994,115.769809 480,36.0167984 C480,12.0056015 468,3.03581628e-06 444,3.03581628e-06 Z" fill="#479951" id="rect"/><g fill="#FFFFFF" id="payU" transform="translate(72.000000, 66.000000)"><path d="M287.177553,41.6081114 L282.27585,41.6081114 C277.326811,41.6081114 273.308183,45.6252236 273.308183,50.5805826 L273.308183,106.875737 C273.308183,106.875737 272.845286,116.665881 256.583354,116.665881 C240.321421,116.665881 239.858525,106.875737 239.858525,106.875737 L239.858525,50.5805826 C239.858525,45.6293658 235.843563,41.6081114 230.890857,41.6081114 L221.087451,41.6081114 C216.138412,41.6081114 212.119784,45.6233751 212.119784,50.5764538 L212.119784,104.43616 C212.119784,123.801145 227.826765,139.50955 247.202309,139.50955 L265.964399,139.50955 C285.340472,139.50955 301.046924,123.806658 301.046924,104.43616 L301.046924,63.6359351 L311.656137,63.6359351 C313.902484,63.6359351 315.73214,61.8110465 315.73214,59.5599322 L315.73214,39.1573517 C315.73214,36.9110046 313.907251,35.0813488 311.656137,35.0813488 L291.253556,35.0813488 C289.007209,35.0813488 287.177553,36.9062375 287.177553,39.1573517 L287.177553,41.6081114 L287.177553,41.6081114 Z M287.177553,41.6081114 L292.079256,41.6081114 C297.031962,41.6081114 301.046924,45.6338641 301.046924,50.5764538 L301.046924,63.6359351 L291.253556,63.6359351 C289.002442,63.6359351 287.177553,61.8062793 287.177553,59.5599322 L287.177553,41.6081114 L287.177553,41.6081114 Z M314.916294,17.1372554 C314.916294,15.3324524 316.374279,13.8693705 318.184179,13.8693705 L332.860388,13.8693705 C334.665191,13.8693705 336.128273,15.3273556 336.128273,17.1372554 L336.128273,31.8134639 C336.128273,33.6182669 334.670287,35.0813488 332.860388,35.0813488 L318.184179,35.0813488 C316.379376,35.0813488 314.916294,33.6233637 314.916294,31.8134639 L314.916294,17.1372554 Z M301.046924,2.44144956 C301.046924,1.0930742 302.150702,0 303.488373,0 L313.29069,0 C314.639065,0 315.73214,1.10377797 315.73214,2.44144956 L315.73214,12.2437662 C315.73214,13.5921416 314.628362,14.6852158 313.29069,14.6852158 L303.488373,14.6852158 C302.139998,14.6852158 301.046924,13.5814378 301.046924,12.2437662 L301.046924,2.44144956 Z M172.355291,139.527078 C172.063072,139.581402 170.503098,139.820572 170.503098,139.820572 C154.70214,141.870899 151.570784,130.135985 148.828722,121.179557 L135.070369,69.9984861 C134.368009,67.3857041 135.983499,65.2676257 138.696422,65.2676257 L141.954368,65.2676257 C144.659343,65.2676257 147.420207,67.3807699 148.123735,69.997891 C148.123735,69.997891 156.881642,102.577305 161.896383,121.232144 C163.386568,125.013556 165.29273,128.509182 169.42972,128.509182 C173.566709,128.509182 175.734486,127.656974 177.630401,120.602892 L189.572796,70.0333723 C190.194376,67.4013231 192.890876,65.2676257 195.59904,65.2676257 L198.809588,65.2676257 C201.516211,65.2676257 203.189064,67.4027467 202.548419,70.0266857 L186.756873,134.705305 C179.487962,163.249932 170.144781,167.398872 155.048455,168 C150.441798,167.398872 148.068755,158.046528 151.828496,156.534744 C151.828496,156.534744 159.437042,156.587669 163.835524,153.398042 C168.588522,149.951332 170.609766,144.438294 171.709055,141.294509 C171.773837,141.284178 172.278482,139.706016 172.355291,139.527078 Z"/><path d="M117.481726,95.4539026 L92.6062143,95.4539026 C80.6633024,95.4539026 70.978543,105.133462 70.978543,117.073804 C70.978543,129.016771 80.6615813,138.693705 92.6062143,138.693705 L108.90758,138.693705 C120.850492,138.693705 130.535251,129.014145 130.535251,117.073804 L130.535251,98.7172839 L130.535251,85.6637588 C130.535251,63.6359351 106.853031,63.6359351 100.348975,63.6359351 C91.9337107,63.6359351 81.5610853,64.9075243 81.5610853,64.9075243 C79.7659063,65.1021911 78.3211509,66.7261718 78.3211509,68.5253795 L78.3211509,73.4317064 C78.3211509,75.2312755 79.7705443,76.5366531 81.5584616,76.348156 C81.5584616,76.348156 92.9342632,75.0613549 99.7143839,75.0613549 C106.199319,75.0613549 117.481726,75.0613549 117.481726,85.6637588 L117.481726,95.4539026 Z M84.0320681,116.665881 C84.0320681,110.357776 89.1487629,105.244047 95.4499875,105.244047 L117.481726,105.244047 L117.481726,116.665881 C117.481726,122.973986 112.365032,128.087716 106.063807,128.087716 L95.4499875,128.087716 C89.1440448,128.087716 84.0320681,122.975373 84.0320681,116.665881 Z" id="Path"/><path d="M0,55.479411 C0,47.818504 6.205657,41.608111 13.8749862,41.608111 L44.056047,41.608111 C58.924931,41.608111 70.978543,53.664695 70.978543,68.522863 L70.978543,77.513449 C70.978543,92.378056 58.919506,104.428201 44.05446,104.428201 L13.8693705,104.428201 L13.8693705,134.611495 C13.8693705,136.866037 12.0419304,138.693705 9.7831165,138.693705 L4.086254,138.693705 C1.8294782,138.693705 0,136.862344 0,134.614918 L0,55.479411 L0,55.479411 Z M13.8693705,58.660463 C13.8693705,56.451972 15.6509687,54.661637 17.8762416,54.661637 L39.560472,54.661637 C49.70293,54.661637 57.925018,62.877901 57.925018,73.018156 C57.925018,83.156182 49.715967,91.374676 39.560472,91.374676 L13.8693705,91.374676 L13.8693705,58.660463 L13.8693705,58.660463 Z" id="Path"/></g></g></g></svg>