<?xml version="1.0" encoding="utf-8"?>
<!-- Generator: Adobe Illustrator 22.0.1, SVG Export Plug-In . SVG Version: 6.00 Build 0)  -->
<svg version="1.1" id="Layer_1" xmlns="http://www.w3.org/2000/svg" xmlns:xlink="http://www.w3.org/1999/xlink" x="0px" y="0px"
	 width="160px" height="60px" viewBox="0 0 160 60" enable-background="new 0 0 160 60" xml:space="preserve">
<symbol  id="New_Symbol" viewBox="-76.6 -20 153.2 40.1">
	<g>
		<path fill="#555555" d="M-42.1,19.2v-31.8h-5.2V7.9c0,0.8,0,1.7,0.1,2.7l-9.6-18.1c-0.5-0.9-1.2-1.3-2.1-1.3h-0.8
			c-0.9,0-1.6,0.4-2.1,1.3l-9.7,18.1c0-0.5,0.1-1,0.1-1.4c0-0.5,0-0.9,0-1.3v-20.5h-5.2v31.8h4.5c0.3,0,0.5,0,0.7,0
			c0.2,0,0.4-0.1,0.5-0.1c0.2-0.1,0.3-0.2,0.4-0.3c0.1-0.1,0.2-0.3,0.4-0.5l9.5-17.7c0.2-0.5,0.5-1,0.7-1.5c0.2-0.5,0.4-1,0.6-1.5
			c0.2,0.5,0.4,1.1,0.6,1.6c0.2,0.5,0.5,1,0.7,1.5l9.4,17.6c0.1,0.2,0.2,0.4,0.4,0.5c0.1,0.1,0.3,0.2,0.4,0.3
			c0.2,0.1,0.3,0.1,0.5,0.1c0.2,0,0.4,0,0.7,0H-42.1z"/>
		<path fill="#09B1BA" d="M-26.6,10.3c1.7,0,3.2-0.3,4.6-0.8c1.4-0.5,2.5-1.3,3.5-2.3s1.7-2.2,2.3-3.7c0.5-1.4,0.8-3,0.8-4.8
			c0-1.8-0.3-3.4-0.8-4.8c-0.5-1.4-1.3-2.7-2.3-3.7s-2.1-1.8-3.5-2.3c-1.4-0.5-2.9-0.8-4.6-0.8c-1.7,0-3.2,0.3-4.6,0.8
			c-1.4,0.5-2.6,1.3-3.5,2.3s-1.7,2.2-2.3,3.7c-0.5,1.4-0.8,3.1-0.8,4.8c0,1.8,0.3,3.4,0.8,4.8c0.5,1.4,1.3,2.7,2.3,3.7
			s2.2,1.8,3.5,2.3C-29.8,10-28.3,10.3-26.6,10.3z M-26.6-8.8c1.9,0,3.3,0.6,4.2,1.9c0.9,1.3,1.4,3.1,1.4,5.5s-0.5,4.3-1.4,5.6
			c-0.9,1.3-2.3,1.9-4.2,1.9c-1.9,0-3.3-0.6-4.2-1.9c-0.9-1.3-1.4-3.1-1.4-5.6s0.5-4.3,1.4-5.5C-29.9-8.2-28.5-8.8-26.6-8.8z"/>
		<path fill="#555555" d="M8.3,20v-32.7H5c-0.7,0-1.2,0.3-1.4,1L3.2-9.5c-0.9-1-2-1.9-3.1-2.5c-1.2-0.6-2.6-1-4.1-1
			c-1.2,0-2.4,0.3-3.4,0.8c-1,0.5-1.9,1.3-2.7,2.2s-1.3,2.2-1.7,3.6c-0.4,1.4-0.6,3.1-0.6,4.9c0,1.7,0.2,3.2,0.7,4.7
			c0.5,1.4,1.1,2.7,2,3.7s1.9,1.9,3.1,2.5c1.2,0.6,2.5,0.9,4,0.9c1.3,0,2.3-0.2,3.2-0.6s1.7-0.9,2.4-1.6V20H8.3z M2.9,4.1
			c-0.6,0.7-1.3,1.3-2,1.6C0.2,6-0.6,6.2-1.5,6.2C-2.3,6.2-3,6-3.7,5.7C-4.3,5.4-4.9,5-5.4,4.3C-5.8,3.7-6.2,2.9-6.5,2
			c-0.2-1-0.4-2.1-0.4-3.4c0-1.3,0.1-2.4,0.3-3.4C-6.3-5.7-6-6.5-5.6-7c0.4-0.6,0.9-1,1.5-1.3c0.6-0.3,1.2-0.4,1.9-0.4
			c1.1,0,2.1,0.2,2.9,0.7c0.8,0.5,1.5,1.1,2.2,2V4.1z"/>
		<path fill="#555555" d="M17.9-2.1c0.1-1.2,0.3-2.2,0.6-3c0.3-0.8,0.7-1.5,1.3-2.1c0.5-0.6,1.2-1,1.9-1.2c0.7-0.3,1.5-0.4,2.4-0.4
			s1.6,0.1,2.3,0.3C27-8.3,27.5-8,28-7.8c0.5,0.2,0.9,0.5,1.3,0.7c0.4,0.2,0.7,0.3,1,0.3c0.5,0,0.8-0.2,1-0.5l1.6-2
			c-0.6-0.7-1.3-1.3-2-1.8c-0.7-0.5-1.5-0.9-2.3-1.1s-1.6-0.5-2.5-0.6c-0.8-0.1-1.7-0.2-2.5-0.2c-1.6,0-3,0.3-4.4,0.8
			s-2.5,1.3-3.5,2.3c-1,1-1.8,2.3-2.4,3.8c-0.6,1.5-0.9,3.2-0.9,5.2c0,1.5,0.2,3,0.7,4.3C13.7,4.8,14.4,6,15.4,7
			c0.9,1,2.1,1.8,3.4,2.4c1.3,0.6,2.9,0.9,4.5,0.9c1.4,0,2.7-0.2,3.9-0.7c1.2-0.5,2.2-1.1,3.1-2s1.5-1.9,2-3.2
			c0.5-1.3,0.7-2.7,0.7-4.3c0-0.8-0.1-1.4-0.3-1.7c-0.2-0.3-0.5-0.4-1-0.4H17.9z M28.2,1.2c0,0.7-0.1,1.4-0.3,2
			c-0.2,0.6-0.5,1.2-0.9,1.6c-0.4,0.5-0.9,0.8-1.5,1.1c-0.6,0.3-1.3,0.4-2.1,0.4c-1.6,0-2.8-0.4-3.7-1.3c-0.9-0.9-1.5-2.2-1.7-3.8
			H28.2z"/>
		<path fill="#555555" d="M51,5.5c-0.1-0.2-0.3-0.4-0.5-0.5c-0.2-0.1-0.4-0.1-0.6-0.1c-0.3,0-0.5,0.1-0.8,0.2
			c-0.3,0.1-0.6,0.3-1,0.5c-0.4,0.2-0.8,0.3-1.4,0.5c-0.5,0.1-1.1,0.2-1.8,0.2c-1.1,0-1.9-0.2-2.5-0.7c-0.6-0.5-0.9-1-0.9-1.8
			c0-0.5,0.2-0.9,0.5-1.2c0.3-0.3,0.7-0.6,1.3-0.9c0.5-0.2,1.1-0.5,1.8-0.7c0.7-0.2,1.3-0.4,2-0.6s1.4-0.5,2-0.8
			c0.7-0.3,1.3-0.7,1.8-1.1c0.5-0.5,0.9-1,1.3-1.7c0.3-0.6,0.5-1.4,0.5-2.3c0-1.1-0.2-2.1-0.6-3c-0.4-0.9-1-1.7-1.7-2.4
			c-0.8-0.7-1.7-1.2-2.8-1.6S44.9-13,43.4-13c-0.8,0-1.5,0.1-2.3,0.2c-0.7,0.1-1.5,0.3-2.1,0.6c-0.7,0.2-1.3,0.5-1.9,0.9
			c-0.6,0.3-1.1,0.7-1.5,1.1l1.3,2.1c0.2,0.2,0.4,0.4,0.6,0.6c0.2,0.1,0.5,0.2,0.8,0.2c0.3,0,0.7-0.1,1-0.3c0.3-0.2,0.6-0.4,1-0.6
			c0.4-0.2,0.9-0.4,1.4-0.6c0.5-0.2,1.2-0.3,2-0.3c0.6,0,1.2,0.1,1.7,0.2c0.5,0.2,0.8,0.4,1.1,0.6s0.5,0.5,0.7,0.9
			c0.1,0.3,0.2,0.7,0.2,1c0,0.5-0.2,1-0.5,1.3c-0.3,0.3-0.7,0.6-1.3,0.9c-0.5,0.2-1.1,0.5-1.8,0.7c-0.7,0.2-1.3,0.4-2,0.6
			s-1.4,0.5-2,0.8C39.1-1.8,38.5-1.4,38-1S37,0.1,36.7,0.8c-0.3,0.7-0.5,1.6-0.5,2.6c0,0.9,0.2,1.8,0.5,2.6c0.4,0.8,0.9,1.6,1.6,2.2
			c0.7,0.6,1.6,1.1,2.7,1.5c1.1,0.4,2.3,0.6,3.7,0.6c1.6,0,3-0.3,4.2-0.8s2.3-1.2,3.2-2L51,5.5z"/>
		<path fill="#555555" d="M76.6,9.9L64.3-18.9c-0.2-0.4-0.4-0.7-0.6-0.9S63-20,62.5-20h-4l4.2,9.1L53.5,9.9h4.8c0.4,0,0.8-0.1,1-0.3
			c0.2-0.2,0.4-0.4,0.5-0.7l4.8-11.7c0.2-0.4,0.3-0.8,0.4-1.2c0.1-0.4,0.2-0.8,0.3-1.2c0.1,0.4,0.3,0.8,0.4,1.2
			c0.1,0.4,0.3,0.8,0.4,1.2l4.5,11.7c0.1,0.3,0.3,0.5,0.6,0.7c0.3,0.2,0.6,0.3,0.9,0.3H76.6z"/>
	</g>
</symbol>
<use xlink:href="#New_Symbol"  width="153.2" height="40.1" x="-76.6" y="-20" transform="matrix(1 0 0 -1 80.0762 32.0735)" overflow="visible"/>
</svg>
